<?xml version="1.0" encoding="UTF-8" standalone="no"?>
<!DOCTYPE svg PUBLIC "-//W3C//DTD SVG 1.1//EN"
 "http://www.w3.org/Graphics/SVG/1.1/DTD/svg11.dtd">
<!-- Generated by graphviz version 2.47.0 (20210316.0004)
 -->
<!-- Pages: 1 -->
<svg width="760pt" height="1674pt"
 viewBox="0.00 0.00 760.23 1674.50" xmlns="http://www.w3.org/2000/svg" xmlns:xlink="http://www.w3.org/1999/xlink">
<g id="graph0" class="graph" transform="scale(1 1) rotate(0) translate(4 1670.5)">
<polygon fill="white" stroke="transparent" points="-4,4 -4,-1670.5 756.23,-1670.5 756.23,4 -4,4"/>
<text text-anchor="middle" x="376.12" y="-1648.1" font-family="Times New Roman,serif" font-size="18.00">Self&#45;organizing deep learning polynomial neural network</text>
<text text-anchor="middle" x="376.12" y="-1628.1" font-family="Times New Roman,serif" font-size="18.00"> </text>
<!-- OUTPUT -->
<g id="node1" class="node">
<title>OUTPUT</title>
<ellipse fill="#ff9c34" stroke="#f89939" cx="46.23" cy="-18" rx="38.33" ry="18"/>
<text text-anchor="middle" x="46.23" y="-14.9" font-family="Times New Roman,serif" font-size="12.00" fill="white">OUTPUT</text>
</g>
<!-- F0
CRIM -->
<g id="node2" class="node">
<title>F0
CRIM</title>
<ellipse fill="#ff9c34" stroke="#f89939" cx="33.23" cy="-1188.21" rx="33.47" ry="24.08"/>
<text text-anchor="middle" x="33.23" y="-1191.61" font-family="Times New Roman,serif" font-size="12.00" fill="white">F0</text>
<text text-anchor="middle" x="33.23" y="-1178.61" font-family="Times New Roman,serif" font-size="12.00" fill="white">CRIM</text>
</g>
<!-- layer 5
neuron 0
linear cov -->
<g id="node26" class="node">
<title>layer 5
neuron 0
linear cov</title>
<polygon fill="#cde8ef" stroke="#cde8ef" points="316.23,-1128.17 260.23,-1128.17 260.23,-1087.17 316.23,-1087.17 316.23,-1128.17"/>
<text text-anchor="middle" x="288.23" y="-1116.17" font-family="Times New Roman,serif" font-size="10.00">layer 5</text>
<text text-anchor="middle" x="288.23" y="-1105.17" font-family="Times New Roman,serif" font-size="10.00">neuron 0</text>
<text text-anchor="middle" x="288.23" y="-1094.17" font-family="Times New Roman,serif" font-size="10.00">linear cov</text>
</g>
<!-- F0
CRIM&#45;&gt;layer 5
neuron 0
linear cov -->
<g id="edge24" class="edge">
<title>F0
CRIM&#45;&gt;layer 5
neuron 0
linear cov</title>
<path fill="none" stroke="#cde8ef" d="M63.49,-1177.89C110.12,-1163.53 199.47,-1136.01 250.34,-1120.34"/>
<polygon fill="#3499cd" stroke="#cde8ef" points="251.45,-1123.66 259.97,-1117.37 249.38,-1116.97 251.45,-1123.66"/>
</g>
<!-- layer 18
neuron 0
linear cov -->
<g id="node41" class="node">
<title>layer 18
neuron 0
linear cov</title>
<polygon fill="#cde8ef" stroke="#cde8ef" points="74.23,-113 18.23,-113 18.23,-72 74.23,-72 74.23,-113"/>
<text text-anchor="middle" x="46.23" y="-101" font-family="Times New Roman,serif" font-size="10.00">layer 18</text>
<text text-anchor="middle" x="46.23" y="-90" font-family="Times New Roman,serif" font-size="10.00">neuron 0</text>
<text text-anchor="middle" x="46.23" y="-79" font-family="Times New Roman,serif" font-size="10.00">linear cov</text>
</g>
<!-- F0
CRIM&#45;&gt;layer 18
neuron 0
linear cov -->
<g id="edge54" class="edge">
<title>F0
CRIM&#45;&gt;layer 18
neuron 0
linear cov</title>
<path fill="none" stroke="#cde8ef" d="M29.68,-1164.09C25.24,-1133.19 18.23,-1076.67 18.23,-1028.12 18.23,-1028.12 18.23,-1028.12 18.23,-245.5 18.23,-202.53 29.19,-153.85 37.39,-123.41"/>
<polygon fill="#3499cd" stroke="#cde8ef" points="40.86,-124.02 40.16,-113.45 34.11,-122.15 40.86,-124.02"/>
</g>
<!-- F1
ZN -->
<g id="node3" class="node">
<title>F1
ZN</title>
<ellipse fill="#ff9c34" stroke="#f89939" cx="300.23" cy="-789.04" rx="27" ry="24.08"/>
<text text-anchor="middle" x="300.23" y="-792.44" font-family="Times New Roman,serif" font-size="12.00" fill="white">F1</text>
<text text-anchor="middle" x="300.23" y="-779.44" font-family="Times New Roman,serif" font-size="12.00" fill="white">ZN</text>
</g>
<!-- layer 10
neuron 0
linear cov -->
<g id="node31" class="node">
<title>layer 10
neuron 0
linear cov</title>
<polygon fill="#cde8ef" stroke="#cde8ef" points="328.23,-729 272.23,-729 272.23,-688 328.23,-688 328.23,-729"/>
<text text-anchor="middle" x="300.23" y="-717" font-family="Times New Roman,serif" font-size="10.00">layer 10</text>
<text text-anchor="middle" x="300.23" y="-706" font-family="Times New Roman,serif" font-size="10.00">neuron 0</text>
<text text-anchor="middle" x="300.23" y="-695" font-family="Times New Roman,serif" font-size="10.00">linear cov</text>
</g>
<!-- F1
ZN&#45;&gt;layer 10
neuron 0
linear cov -->
<g id="edge34" class="edge">
<title>F1
ZN&#45;&gt;layer 10
neuron 0
linear cov</title>
<path fill="none" stroke="#cde8ef" d="M300.23,-764.9C300.23,-756.88 300.23,-747.78 300.23,-739.3"/>
<polygon fill="#3499cd" stroke="#cde8ef" points="303.73,-739.03 300.23,-729.03 296.73,-739.03 303.73,-739.03"/>
</g>
<!-- F2
INDUS -->
<g id="node4" class="node">
<title>F2
INDUS</title>
<ellipse fill="#ff9c34" stroke="#f89939" cx="568.23" cy="-1594.46" rx="37.45" ry="24.08"/>
<text text-anchor="middle" x="568.23" y="-1597.86" font-family="Times New Roman,serif" font-size="12.00" fill="white">F2</text>
<text text-anchor="middle" x="568.23" y="-1584.86" font-family="Times New Roman,serif" font-size="12.00" fill="white">INDUS</text>
</g>
<!-- F3
CHAS -->
<g id="node5" class="node">
<title>F3
CHAS</title>
<ellipse fill="#ff9c34" stroke="#f89939" cx="205.23" cy="-1594.46" rx="33.88" ry="24.08"/>
<text text-anchor="middle" x="205.23" y="-1597.86" font-family="Times New Roman,serif" font-size="12.00" fill="white">F3</text>
<text text-anchor="middle" x="205.23" y="-1584.86" font-family="Times New Roman,serif" font-size="12.00" fill="white">CHAS</text>
</g>
<!-- layer 0
neuron 2
linear cov -->
<g id="node17" class="node">
<title>layer 0
neuron 2
linear cov</title>
<polygon fill="#cde8ef" stroke="#cde8ef" points="239.23,-1534.42 183.23,-1534.42 183.23,-1493.42 239.23,-1493.42 239.23,-1534.42"/>
<text text-anchor="middle" x="211.23" y="-1522.42" font-family="Times New Roman,serif" font-size="10.00">layer 0</text>
<text text-anchor="middle" x="211.23" y="-1511.42" font-family="Times New Roman,serif" font-size="10.00">neuron 2</text>
<text text-anchor="middle" x="211.23" y="-1500.42" font-family="Times New Roman,serif" font-size="10.00">linear cov</text>
</g>
<!-- F3
CHAS&#45;&gt;layer 0
neuron 2
linear cov -->
<g id="edge5" class="edge">
<title>F3
CHAS&#45;&gt;layer 0
neuron 2
linear cov</title>
<path fill="none" stroke="#cde8ef" d="M207,-1570.32C207.62,-1562.21 208.33,-1552.99 208.98,-1544.44"/>
<polygon fill="#3499cd" stroke="#cde8ef" points="212.47,-1544.68 209.74,-1534.44 205.49,-1544.15 212.47,-1544.68"/>
</g>
<!-- F4
NOX -->
<g id="node6" class="node">
<title>F4
NOX</title>
<ellipse fill="#ff9c34" stroke="#f89939" cx="173.23" cy="-1027.12" rx="30.31" ry="24.08"/>
<text text-anchor="middle" x="173.23" y="-1030.52" font-family="Times New Roman,serif" font-size="12.00" fill="white">F4</text>
<text text-anchor="middle" x="173.23" y="-1017.52" font-family="Times New Roman,serif" font-size="12.00" fill="white">NOX</text>
</g>
<!-- layer 7
neuron 0
linear cov -->
<g id="node28" class="node">
<title>layer 7
neuron 0
linear cov</title>
<polygon fill="#cde8ef" stroke="#cde8ef" points="345.23,-967.08 289.23,-967.08 289.23,-926.08 345.23,-926.08 345.23,-967.08"/>
<text text-anchor="middle" x="317.23" y="-955.08" font-family="Times New Roman,serif" font-size="10.00">layer 7</text>
<text text-anchor="middle" x="317.23" y="-944.08" font-family="Times New Roman,serif" font-size="10.00">neuron 0</text>
<text text-anchor="middle" x="317.23" y="-933.08" font-family="Times New Roman,serif" font-size="10.00">linear cov</text>
</g>
<!-- F4
NOX&#45;&gt;layer 7
neuron 0
linear cov -->
<g id="edge28" class="edge">
<title>F4
NOX&#45;&gt;layer 7
neuron 0
linear cov</title>
<path fill="none" stroke="#cde8ef" d="M197.66,-1012.8C220.34,-1000.43 254.43,-981.84 280.41,-967.67"/>
<polygon fill="#3499cd" stroke="#cde8ef" points="282.13,-970.72 289.23,-962.86 278.77,-964.57 282.13,-970.72"/>
</g>
<!-- layer 13
neuron 0
linear cov -->
<g id="node35" class="node">
<title>layer 13
neuron 0
linear cov</title>
<polygon fill="#cde8ef" stroke="#cde8ef" points="280.23,-498 224.23,-498 224.23,-457 280.23,-457 280.23,-498"/>
<text text-anchor="middle" x="252.23" y="-486" font-family="Times New Roman,serif" font-size="10.00">layer 13</text>
<text text-anchor="middle" x="252.23" y="-475" font-family="Times New Roman,serif" font-size="10.00">neuron 0</text>
<text text-anchor="middle" x="252.23" y="-464" font-family="Times New Roman,serif" font-size="10.00">linear cov</text>
</g>
<!-- F4
NOX&#45;&gt;layer 13
neuron 0
linear cov -->
<g id="edge42" class="edge">
<title>F4
NOX&#45;&gt;layer 13
neuron 0
linear cov</title>
<path fill="none" stroke="#cde8ef" d="M181.05,-1003.77C190.81,-973.84 206.23,-918.89 206.23,-870.58 206.23,-870.58 206.23,-870.58 206.23,-630.5 206.23,-586.79 211.33,-575.44 225.23,-534 228.25,-524.99 232.42,-515.57 236.58,-507.1"/>
<polygon fill="#3499cd" stroke="#cde8ef" points="239.78,-508.51 241.2,-498.01 233.55,-505.34 239.78,-508.51"/>
</g>
<!-- layer 13
neuron 1
linear cov -->
<g id="node36" class="node">
<title>layer 13
neuron 1
linear cov</title>
<polygon fill="#cde8ef" stroke="#cde8ef" points="196.23,-498 140.23,-498 140.23,-457 196.23,-457 196.23,-498"/>
<text text-anchor="middle" x="168.23" y="-486" font-family="Times New Roman,serif" font-size="10.00">layer 13</text>
<text text-anchor="middle" x="168.23" y="-475" font-family="Times New Roman,serif" font-size="10.00">neuron 1</text>
<text text-anchor="middle" x="168.23" y="-464" font-family="Times New Roman,serif" font-size="10.00">linear cov</text>
</g>
<!-- F4
NOX&#45;&gt;layer 13
neuron 1
linear cov -->
<g id="edge44" class="edge">
<title>F4
NOX&#45;&gt;layer 13
neuron 1
linear cov</title>
<path fill="none" stroke="#cde8ef" d="M172.02,-1002.94C170.54,-972.56 168.23,-917.59 168.23,-870.58 168.23,-870.58 168.23,-870.58 168.23,-630.5 168.23,-588.01 168.23,-538.84 168.23,-508.2"/>
<polygon fill="#3499cd" stroke="#cde8ef" points="171.73,-508.18 168.23,-498.18 164.73,-508.18 171.73,-508.18"/>
</g>
<!-- layer 17
neuron 0
linear cov -->
<g id="node40" class="node">
<title>layer 17
neuron 0
linear cov</title>
<polygon fill="#cde8ef" stroke="#cde8ef" points="102.23,-190 46.23,-190 46.23,-149 102.23,-149 102.23,-190"/>
<text text-anchor="middle" x="74.23" y="-178" font-family="Times New Roman,serif" font-size="10.00">layer 17</text>
<text text-anchor="middle" x="74.23" y="-167" font-family="Times New Roman,serif" font-size="10.00">neuron 0</text>
<text text-anchor="middle" x="74.23" y="-156" font-family="Times New Roman,serif" font-size="10.00">linear cov</text>
</g>
<!-- F4
NOX&#45;&gt;layer 17
neuron 0
linear cov -->
<g id="edge52" class="edge">
<title>F4
NOX&#45;&gt;layer 17
neuron 0
linear cov</title>
<path fill="none" stroke="#cde8ef" d="M150.68,-1010.89C116.68,-985.91 56.23,-932.76 56.23,-870.58 56.23,-870.58 56.23,-870.58 56.23,-322.5 56.23,-279.71 63.35,-230.62 68.64,-200.08"/>
<polygon fill="#3499cd" stroke="#cde8ef" points="72.11,-200.55 70.42,-190.09 65.22,-199.32 72.11,-200.55"/>
</g>
<!-- F5
RM -->
<g id="node7" class="node">
<title>F5
RM</title>
<ellipse fill="#ff9c34" stroke="#f89939" cx="284.23" cy="-1594.46" rx="27" ry="24.08"/>
<text text-anchor="middle" x="284.23" y="-1597.86" font-family="Times New Roman,serif" font-size="12.00" fill="white">F5</text>
<text text-anchor="middle" x="284.23" y="-1584.86" font-family="Times New Roman,serif" font-size="12.00" fill="white">RM</text>
</g>
<!-- layer 0
neuron 0
linear cov -->
<g id="node15" class="node">
<title>layer 0
neuron 0
linear cov</title>
<polygon fill="#cde8ef" stroke="#cde8ef" points="325.23,-1534.42 269.23,-1534.42 269.23,-1493.42 325.23,-1493.42 325.23,-1534.42"/>
<text text-anchor="middle" x="297.23" y="-1522.42" font-family="Times New Roman,serif" font-size="10.00">layer 0</text>
<text text-anchor="middle" x="297.23" y="-1511.42" font-family="Times New Roman,serif" font-size="10.00">neuron 0</text>
<text text-anchor="middle" x="297.23" y="-1500.42" font-family="Times New Roman,serif" font-size="10.00">linear cov</text>
</g>
<!-- F5
RM&#45;&gt;layer 0
neuron 0
linear cov -->
<g id="edge1" class="edge">
<title>F5
RM&#45;&gt;layer 0
neuron 0
linear cov</title>
<path fill="none" stroke="#cde8ef" d="M288.06,-1570.32C289.41,-1562.21 290.93,-1552.99 292.35,-1544.44"/>
<polygon fill="#3499cd" stroke="#cde8ef" points="295.82,-1544.88 294,-1534.44 288.92,-1543.74 295.82,-1544.88"/>
</g>
<!-- layer 0
neuron 3
linear cov -->
<g id="node18" class="node">
<title>layer 0
neuron 3
linear cov</title>
<polygon fill="#cde8ef" stroke="#cde8ef" points="165.23,-1534.42 109.23,-1534.42 109.23,-1493.42 165.23,-1493.42 165.23,-1534.42"/>
<text text-anchor="middle" x="137.23" y="-1522.42" font-family="Times New Roman,serif" font-size="10.00">layer 0</text>
<text text-anchor="middle" x="137.23" y="-1511.42" font-family="Times New Roman,serif" font-size="10.00">neuron 3</text>
<text text-anchor="middle" x="137.23" y="-1500.42" font-family="Times New Roman,serif" font-size="10.00">linear cov</text>
</g>
<!-- F5
RM&#45;&gt;layer 0
neuron 3
linear cov -->
<g id="edge7" class="edge">
<title>F5
RM&#45;&gt;layer 0
neuron 3
linear cov</title>
<path fill="none" stroke="#cde8ef" d="M263.16,-1579.39C258.32,-1576.33 253.15,-1573.17 248.23,-1570.42 218.83,-1553.93 208.48,-1551.29 174.61,-1534.51"/>
<polygon fill="#3499cd" stroke="#cde8ef" points="175.97,-1531.27 165.47,-1529.92 172.83,-1537.53 175.97,-1531.27"/>
</g>
<!-- F6
AGE -->
<g id="node8" class="node">
<title>F6
AGE</title>
<ellipse fill="#ff9c34" stroke="#f89939" cx="652.23" cy="-1594.46" rx="28.07" ry="24.08"/>
<text text-anchor="middle" x="652.23" y="-1597.86" font-family="Times New Roman,serif" font-size="12.00" fill="white">F6</text>
<text text-anchor="middle" x="652.23" y="-1584.86" font-family="Times New Roman,serif" font-size="12.00" fill="white">AGE</text>
</g>
<!-- F7
DIS -->
<g id="node9" class="node">
<title>F7
DIS</title>
<ellipse fill="#ff9c34" stroke="#f89939" cx="345.23" cy="-1349.29" rx="27" ry="24.08"/>
<text text-anchor="middle" x="345.23" y="-1352.69" font-family="Times New Roman,serif" font-size="12.00" fill="white">F7</text>
<text text-anchor="middle" x="345.23" y="-1339.69" font-family="Times New Roman,serif" font-size="12.00" fill="white">DIS</text>
</g>
<!-- layer 3
neuron 1
linear cov -->
<g id="node24" class="node">
<title>layer 3
neuron 1
linear cov</title>
<polygon fill="#cde8ef" stroke="#cde8ef" points="334.23,-1289.25 278.23,-1289.25 278.23,-1248.25 334.23,-1248.25 334.23,-1289.25"/>
<text text-anchor="middle" x="306.23" y="-1277.25" font-family="Times New Roman,serif" font-size="10.00">layer 3</text>
<text text-anchor="middle" x="306.23" y="-1266.25" font-family="Times New Roman,serif" font-size="10.00">neuron 1</text>
<text text-anchor="middle" x="306.23" y="-1255.25" font-family="Times New Roman,serif" font-size="10.00">linear cov</text>
</g>
<!-- F7
DIS&#45;&gt;layer 3
neuron 1
linear cov -->
<g id="edge20" class="edge">
<title>F7
DIS&#45;&gt;layer 3
neuron 1
linear cov</title>
<path fill="none" stroke="#cde8ef" d="M334.58,-1326.83C330.21,-1318.04 325.1,-1307.74 320.43,-1298.33"/>
<polygon fill="#3499cd" stroke="#cde8ef" points="323.53,-1296.7 315.94,-1289.3 317.26,-1299.82 323.53,-1296.7"/>
</g>
<!-- layer 6
neuron 0
linear cov -->
<g id="node27" class="node">
<title>layer 6
neuron 0
linear cov</title>
<polygon fill="#cde8ef" stroke="#cde8ef" points="345.23,-1047.62 289.23,-1047.62 289.23,-1006.62 345.23,-1006.62 345.23,-1047.62"/>
<text text-anchor="middle" x="317.23" y="-1035.62" font-family="Times New Roman,serif" font-size="10.00">layer 6</text>
<text text-anchor="middle" x="317.23" y="-1024.62" font-family="Times New Roman,serif" font-size="10.00">neuron 0</text>
<text text-anchor="middle" x="317.23" y="-1013.62" font-family="Times New Roman,serif" font-size="10.00">linear cov</text>
</g>
<!-- F7
DIS&#45;&gt;layer 6
neuron 0
linear cov -->
<g id="edge26" class="edge">
<title>F7
DIS&#45;&gt;layer 6
neuron 0
linear cov</title>
<path fill="none" stroke="#cde8ef" d="M345.37,-1325.22C345.35,-1304.93 344.97,-1274.6 343.23,-1248.25 338.51,-1176.37 334.07,-1158.66 325.23,-1087.17 324.05,-1077.62 322.68,-1067.22 321.4,-1057.84"/>
<polygon fill="#3499cd" stroke="#cde8ef" points="324.85,-1057.22 320.02,-1047.79 317.91,-1058.17 324.85,-1057.22"/>
</g>
<!-- F8
RAD -->
<g id="node10" class="node">
<title>F8
RAD</title>
<ellipse fill="#ff9c34" stroke="#f89939" cx="217.23" cy="-1433.37" rx="28.98" ry="24.08"/>
<text text-anchor="middle" x="217.23" y="-1436.77" font-family="Times New Roman,serif" font-size="12.00" fill="white">F8</text>
<text text-anchor="middle" x="217.23" y="-1423.77" font-family="Times New Roman,serif" font-size="12.00" fill="white">RAD</text>
</g>
<!-- layer 2
neuron 0
linear cov -->
<g id="node21" class="node">
<title>layer 2
neuron 0
linear cov</title>
<polygon fill="#cde8ef" stroke="#cde8ef" points="299.23,-1369.79 243.23,-1369.79 243.23,-1328.79 299.23,-1328.79 299.23,-1369.79"/>
<text text-anchor="middle" x="271.23" y="-1357.79" font-family="Times New Roman,serif" font-size="10.00">layer 2</text>
<text text-anchor="middle" x="271.23" y="-1346.79" font-family="Times New Roman,serif" font-size="10.00">neuron 0</text>
<text text-anchor="middle" x="271.23" y="-1335.79" font-family="Times New Roman,serif" font-size="10.00">linear cov</text>
</g>
<!-- F8
RAD&#45;&gt;layer 2
neuron 0
linear cov -->
<g id="edge14" class="edge">
<title>F8
RAD&#45;&gt;layer 2
neuron 0
linear cov</title>
<path fill="none" stroke="#cde8ef" d="M230.86,-1411.66C237.52,-1401.54 245.62,-1389.22 252.82,-1378.28"/>
<polygon fill="#3499cd" stroke="#cde8ef" points="255.78,-1380.15 258.36,-1369.87 249.94,-1376.3 255.78,-1380.15"/>
</g>
<!-- layer 2
neuron 1
linear cov -->
<g id="node22" class="node">
<title>layer 2
neuron 1
linear cov</title>
<polygon fill="#cde8ef" stroke="#cde8ef" points="185.23,-1369.79 129.23,-1369.79 129.23,-1328.79 185.23,-1328.79 185.23,-1369.79"/>
<text text-anchor="middle" x="157.23" y="-1357.79" font-family="Times New Roman,serif" font-size="10.00">layer 2</text>
<text text-anchor="middle" x="157.23" y="-1346.79" font-family="Times New Roman,serif" font-size="10.00">neuron 1</text>
<text text-anchor="middle" x="157.23" y="-1335.79" font-family="Times New Roman,serif" font-size="10.00">linear cov</text>
</g>
<!-- F8
RAD&#45;&gt;layer 2
neuron 1
linear cov -->
<g id="edge16" class="edge">
<title>F8
RAD&#45;&gt;layer 2
neuron 1
linear cov</title>
<path fill="none" stroke="#cde8ef" d="M202.71,-1412.5C195.19,-1402.22 185.89,-1389.49 177.66,-1378.24"/>
<polygon fill="#3499cd" stroke="#cde8ef" points="180.35,-1375.99 171.62,-1369.98 174.7,-1380.12 180.35,-1375.99"/>
</g>
<!-- layer 9
neuron 0
linear cov -->
<g id="node30" class="node">
<title>layer 9
neuron 0
linear cov</title>
<polygon fill="#cde8ef" stroke="#cde8ef" points="401.23,-809.54 345.23,-809.54 345.23,-768.54 401.23,-768.54 401.23,-809.54"/>
<text text-anchor="middle" x="373.23" y="-797.54" font-family="Times New Roman,serif" font-size="10.00">layer 9</text>
<text text-anchor="middle" x="373.23" y="-786.54" font-family="Times New Roman,serif" font-size="10.00">neuron 0</text>
<text text-anchor="middle" x="373.23" y="-775.54" font-family="Times New Roman,serif" font-size="10.00">linear cov</text>
</g>
<!-- F8
RAD&#45;&gt;layer 9
neuron 0
linear cov -->
<g id="edge32" class="edge">
<title>F8
RAD&#45;&gt;layer 9
neuron 0
linear cov</title>
<path fill="none" stroke="#cde8ef" d="M240.47,-1418.82C246.76,-1415.45 253.66,-1412.04 260.23,-1409.33 312.12,-1387.97 343.75,-1415.09 381.23,-1373.33 412.5,-1338.5 400.23,-1316.55 400.23,-1269.75 400.23,-1269.75 400.23,-1269.75 400.23,-1187.21 400.23,-1115.59 382.54,-899.62 375.8,-819.97"/>
<polygon fill="#3499cd" stroke="#cde8ef" points="379.26,-819.33 374.92,-809.67 372.28,-819.93 379.26,-819.33"/>
</g>
<!-- layer 11
neuron 0
linear cov -->
<g id="node32" class="node">
<title>layer 11
neuron 0
linear cov</title>
<polygon fill="#cde8ef" stroke="#cde8ef" points="290.23,-652 234.23,-652 234.23,-611 290.23,-611 290.23,-652"/>
<text text-anchor="middle" x="262.23" y="-640" font-family="Times New Roman,serif" font-size="10.00">layer 11</text>
<text text-anchor="middle" x="262.23" y="-629" font-family="Times New Roman,serif" font-size="10.00">neuron 0</text>
<text text-anchor="middle" x="262.23" y="-618" font-family="Times New Roman,serif" font-size="10.00">linear cov</text>
</g>
<!-- F8
RAD&#45;&gt;layer 11
neuron 0
linear cov -->
<g id="edge36" class="edge">
<title>F8
RAD&#45;&gt;layer 11
neuron 0
linear cov</title>
<path fill="none" stroke="#cde8ef" d="M212.56,-1409.2C207.12,-1381 198.49,-1331.86 195.23,-1289.25 180.96,-1102.45 244.23,-1057.93 244.23,-870.58 244.23,-870.58 244.23,-870.58 244.23,-788.04 244.23,-744.03 251.43,-693.47 256.73,-662.25"/>
<polygon fill="#3499cd" stroke="#cde8ef" points="260.23,-662.51 258.5,-652.06 253.34,-661.31 260.23,-662.51"/>
</g>
<!-- layer 12
neuron 1
linear cov -->
<g id="node34" class="node">
<title>layer 12
neuron 1
linear cov</title>
<polygon fill="#cde8ef" stroke="#cde8ef" points="140.23,-575 84.23,-575 84.23,-534 140.23,-534 140.23,-575"/>
<text text-anchor="middle" x="112.23" y="-563" font-family="Times New Roman,serif" font-size="10.00">layer 12</text>
<text text-anchor="middle" x="112.23" y="-552" font-family="Times New Roman,serif" font-size="10.00">neuron 1</text>
<text text-anchor="middle" x="112.23" y="-541" font-family="Times New Roman,serif" font-size="10.00">linear cov</text>
</g>
<!-- F8
RAD&#45;&gt;layer 12
neuron 1
linear cov -->
<g id="edge40" class="edge">
<title>F8
RAD&#45;&gt;layer 12
neuron 1
linear cov</title>
<path fill="none" stroke="#cde8ef" d="M194.29,-1418.45C165.66,-1401.06 120.39,-1373.56 120.23,-1373.33 93.7,-1334.78 101.23,-1316.55 101.23,-1269.75 101.23,-1269.75 101.23,-1269.75 101.23,-707.5 101.23,-664.9 105.59,-615.76 108.81,-585.15"/>
<polygon fill="#3499cd" stroke="#cde8ef" points="112.3,-585.46 109.9,-575.14 105.34,-584.71 112.3,-585.46"/>
</g>
<!-- F9
TAX -->
<g id="node11" class="node">
<title>F9
TAX</title>
<ellipse fill="#ff9c34" stroke="#f89939" cx="125.23" cy="-1594.46" rx="28.07" ry="24.08"/>
<text text-anchor="middle" x="125.23" y="-1597.86" font-family="Times New Roman,serif" font-size="12.00" fill="white">F9</text>
<text text-anchor="middle" x="125.23" y="-1584.86" font-family="Times New Roman,serif" font-size="12.00" fill="white">TAX</text>
</g>
<!-- F9
TAX&#45;&gt;layer 0
neuron 3
linear cov -->
<g id="edge8" class="edge">
<title>F9
TAX&#45;&gt;layer 0
neuron 3
linear cov</title>
<path fill="none" stroke="#cde8ef" d="M128.77,-1570.32C130.01,-1562.21 131.42,-1552.99 132.72,-1544.44"/>
<polygon fill="#3499cd" stroke="#cde8ef" points="136.2,-1544.86 134.25,-1534.44 129.28,-1543.8 136.2,-1544.86"/>
</g>
<!-- F10
PTRATIO -->
<g id="node12" class="node">
<title>F10
PTRATIO</title>
<ellipse fill="#ff9c34" stroke="#f89939" cx="375.23" cy="-1594.46" rx="45.92" ry="24.08"/>
<text text-anchor="middle" x="375.23" y="-1597.86" font-family="Times New Roman,serif" font-size="12.00" fill="white">F10</text>
<text text-anchor="middle" x="375.23" y="-1584.86" font-family="Times New Roman,serif" font-size="12.00" fill="white">PTRATIO</text>
</g>
<!-- layer 0
neuron 1
linear cov -->
<g id="node16" class="node">
<title>layer 0
neuron 1
linear cov</title>
<polygon fill="#cde8ef" stroke="#cde8ef" points="403.23,-1534.42 347.23,-1534.42 347.23,-1493.42 403.23,-1493.42 403.23,-1534.42"/>
<text text-anchor="middle" x="375.23" y="-1522.42" font-family="Times New Roman,serif" font-size="10.00">layer 0</text>
<text text-anchor="middle" x="375.23" y="-1511.42" font-family="Times New Roman,serif" font-size="10.00">neuron 1</text>
<text text-anchor="middle" x="375.23" y="-1500.42" font-family="Times New Roman,serif" font-size="10.00">linear cov</text>
</g>
<!-- F10
PTRATIO&#45;&gt;layer 0
neuron 1
linear cov -->
<g id="edge3" class="edge">
<title>F10
PTRATIO&#45;&gt;layer 0
neuron 1
linear cov</title>
<path fill="none" stroke="#cde8ef" d="M375.23,-1570.32C375.23,-1562.3 375.23,-1553.2 375.23,-1544.72"/>
<polygon fill="#3499cd" stroke="#cde8ef" points="378.73,-1544.44 375.23,-1534.44 371.73,-1544.44 378.73,-1544.44"/>
</g>
<!-- F11
B -->
<g id="node13" class="node">
<title>F11
B</title>
<ellipse fill="#ff9c34" stroke="#f89939" cx="725.23" cy="-1594.46" rx="27" ry="24.08"/>
<text text-anchor="middle" x="725.23" y="-1597.86" font-family="Times New Roman,serif" font-size="12.00" fill="white">F11</text>
<text text-anchor="middle" x="725.23" y="-1584.86" font-family="Times New Roman,serif" font-size="12.00" fill="white">B</text>
</g>
<!-- F12
LSTAT -->
<g id="node14" class="node">
<title>F12
LSTAT</title>
<ellipse fill="#ff9c34" stroke="#f89939" cx="476.23" cy="-1594.46" rx="36.54" ry="24.08"/>
<text text-anchor="middle" x="476.23" y="-1597.86" font-family="Times New Roman,serif" font-size="12.00" fill="white">F12</text>
<text text-anchor="middle" x="476.23" y="-1584.86" font-family="Times New Roman,serif" font-size="12.00" fill="white">LSTAT</text>
</g>
<!-- F12
LSTAT&#45;&gt;layer 0
neuron 0
linear cov -->
<g id="edge2" class="edge">
<title>F12
LSTAT&#45;&gt;layer 0
neuron 0
linear cov</title>
<path fill="none" stroke="#cde8ef" d="M447.72,-1578.67C441.97,-1575.83 435.95,-1572.96 430.23,-1570.42 390.12,-1552.57 378.53,-1551.86 338.23,-1534.42 337.05,-1533.91 335.86,-1533.38 334.65,-1532.85"/>
<polygon fill="#3499cd" stroke="#cde8ef" points="335.9,-1529.57 325.34,-1528.61 333,-1535.94 335.9,-1529.57"/>
</g>
<!-- F12
LSTAT&#45;&gt;layer 0
neuron 1
linear cov -->
<g id="edge4" class="edge">
<title>F12
LSTAT&#45;&gt;layer 0
neuron 1
linear cov</title>
<path fill="none" stroke="#cde8ef" d="M453.32,-1575.64C440.06,-1565.32 423.14,-1552.17 408.44,-1540.74"/>
<polygon fill="#3499cd" stroke="#cde8ef" points="410.59,-1537.97 400.54,-1534.6 406.29,-1543.5 410.59,-1537.97"/>
</g>
<!-- F12
LSTAT&#45;&gt;layer 0
neuron 2
linear cov -->
<g id="edge6" class="edge">
<title>F12
LSTAT&#45;&gt;layer 0
neuron 2
linear cov</title>
<path fill="none" stroke="#cde8ef" d="M448.51,-1578.15C442.6,-1575.29 436.3,-1572.54 430.23,-1570.42 357.34,-1544.91 334.16,-1556.78 260.23,-1534.42 256.5,-1533.29 252.64,-1531.99 248.82,-1530.62"/>
<polygon fill="#3499cd" stroke="#cde8ef" points="250.04,-1527.34 239.44,-1527.09 247.57,-1533.89 250.04,-1527.34"/>
</g>
<!-- layer 8
neuron 0
linear cov -->
<g id="node29" class="node">
<title>layer 8
neuron 0
linear cov</title>
<polygon fill="#cde8ef" stroke="#cde8ef" points="448.23,-890.08 392.23,-890.08 392.23,-849.08 448.23,-849.08 448.23,-890.08"/>
<text text-anchor="middle" x="420.23" y="-878.08" font-family="Times New Roman,serif" font-size="10.00">layer 8</text>
<text text-anchor="middle" x="420.23" y="-867.08" font-family="Times New Roman,serif" font-size="10.00">neuron 0</text>
<text text-anchor="middle" x="420.23" y="-856.08" font-family="Times New Roman,serif" font-size="10.00">linear cov</text>
</g>
<!-- F12
LSTAT&#45;&gt;layer 8
neuron 0
linear cov -->
<g id="edge30" class="edge">
<title>F12
LSTAT&#45;&gt;layer 8
neuron 0
linear cov</title>
<path fill="none" stroke="#cde8ef" d="M467.32,-1570.94C456.09,-1540.48 438.23,-1484.21 438.23,-1434.37 438.23,-1434.37 438.23,-1434.37 438.23,-1026.12 438.23,-982.11 431.03,-931.55 425.74,-900.34"/>
<polygon fill="#3499cd" stroke="#cde8ef" points="429.13,-899.39 423.96,-890.14 422.23,-900.59 429.13,-899.39"/>
</g>
<!-- layer 12
neuron 0
linear cov -->
<g id="node33" class="node">
<title>layer 12
neuron 0
linear cov</title>
<polygon fill="#cde8ef" stroke="#cde8ef" points="290.23,-575 234.23,-575 234.23,-534 290.23,-534 290.23,-575"/>
<text text-anchor="middle" x="262.23" y="-563" font-family="Times New Roman,serif" font-size="10.00">layer 12</text>
<text text-anchor="middle" x="262.23" y="-552" font-family="Times New Roman,serif" font-size="10.00">neuron 0</text>
<text text-anchor="middle" x="262.23" y="-541" font-family="Times New Roman,serif" font-size="10.00">linear cov</text>
</g>
<!-- F12
LSTAT&#45;&gt;layer 12
neuron 0
linear cov -->
<g id="edge38" class="edge">
<title>F12
LSTAT&#45;&gt;layer 12
neuron 0
linear cov</title>
<path fill="none" stroke="#cde8ef" d="M476.23,-1570.27C476.23,-1539.3 476.23,-1482.71 476.23,-1434.37 476.23,-1434.37 476.23,-1434.37 476.23,-707.5 476.23,-622.24 361.94,-580.42 300.41,-564.08"/>
<polygon fill="#3499cd" stroke="#cde8ef" points="301.21,-560.67 290.65,-561.58 299.47,-567.45 301.21,-560.67"/>
</g>
<!-- layer 15
neuron 0
linear cov -->
<g id="node38" class="node">
<title>layer 15
neuron 0
linear cov</title>
<polygon fill="#cde8ef" stroke="#cde8ef" points="402.23,-344 346.23,-344 346.23,-303 402.23,-303 402.23,-344"/>
<text text-anchor="middle" x="374.23" y="-332" font-family="Times New Roman,serif" font-size="10.00">layer 15</text>
<text text-anchor="middle" x="374.23" y="-321" font-family="Times New Roman,serif" font-size="10.00">neuron 0</text>
<text text-anchor="middle" x="374.23" y="-310" font-family="Times New Roman,serif" font-size="10.00">linear cov</text>
</g>
<!-- F12
LSTAT&#45;&gt;layer 15
neuron 0
linear cov -->
<g id="edge48" class="edge">
<title>F12
LSTAT&#45;&gt;layer 15
neuron 0
linear cov</title>
<path fill="none" stroke="#cde8ef" d="M485.14,-1570.94C496.37,-1540.48 514.23,-1484.21 514.23,-1434.37 514.23,-1434.37 514.23,-1434.37 514.23,-476.5 514.23,-415.67 452.82,-368.74 411.34,-343.98"/>
<polygon fill="#3499cd" stroke="#cde8ef" points="412.97,-340.88 402.57,-338.89 409.46,-346.94 412.97,-340.88"/>
</g>
<!-- layer 16
neuron 0
linear cov -->
<g id="node39" class="node">
<title>layer 16
neuron 0
linear cov</title>
<polygon fill="#cde8ef" stroke="#cde8ef" points="402.23,-267 346.23,-267 346.23,-226 402.23,-226 402.23,-267"/>
<text text-anchor="middle" x="374.23" y="-255" font-family="Times New Roman,serif" font-size="10.00">layer 16</text>
<text text-anchor="middle" x="374.23" y="-244" font-family="Times New Roman,serif" font-size="10.00">neuron 0</text>
<text text-anchor="middle" x="374.23" y="-233" font-family="Times New Roman,serif" font-size="10.00">linear cov</text>
</g>
<!-- F12
LSTAT&#45;&gt;layer 16
neuron 0
linear cov -->
<g id="edge50" class="edge">
<title>F12
LSTAT&#45;&gt;layer 16
neuron 0
linear cov</title>
<path fill="none" stroke="#cde8ef" d="M493.48,-1572.84C515.9,-1543.86 552.23,-1488.55 552.23,-1434.37 552.23,-1434.37 552.23,-1434.37 552.23,-399.5 552.23,-326.39 464.33,-280.97 412.07,-260.43"/>
<polygon fill="#3499cd" stroke="#cde8ef" points="413.03,-257.05 402.44,-256.76 410.54,-263.59 413.03,-257.05"/>
</g>
<!-- layer 1
neuron 0
linear cov -->
<g id="node19" class="node">
<title>layer 1
neuron 0
linear cov</title>
<polygon fill="#cde8ef" stroke="#cde8ef" points="325.23,-1453.87 269.23,-1453.87 269.23,-1412.87 325.23,-1412.87 325.23,-1453.87"/>
<text text-anchor="middle" x="297.23" y="-1441.87" font-family="Times New Roman,serif" font-size="10.00">layer 1</text>
<text text-anchor="middle" x="297.23" y="-1430.87" font-family="Times New Roman,serif" font-size="10.00">neuron 0</text>
<text text-anchor="middle" x="297.23" y="-1419.87" font-family="Times New Roman,serif" font-size="10.00">linear cov</text>
</g>
<!-- layer 0
neuron 0
linear cov&#45;&gt;layer 1
neuron 0
linear cov -->
<g id="edge9" class="edge">
<title>layer 0
neuron 0
linear cov&#45;&gt;layer 1
neuron 0
linear cov</title>
<path fill="none" stroke="#cde8ef" d="M297.23,-1493.1C297.23,-1484.29 297.23,-1473.73 297.23,-1464.01"/>
<polygon fill="#3499cd" stroke="#cde8ef" points="300.73,-1463.92 297.23,-1453.92 293.73,-1463.92 300.73,-1463.92"/>
</g>
<!-- layer 0
neuron 1
linear cov&#45;&gt;layer 1
neuron 0
linear cov -->
<g id="edge10" class="edge">
<title>layer 0
neuron 1
linear cov&#45;&gt;layer 1
neuron 0
linear cov</title>
<path fill="none" stroke="#cde8ef" d="M355.55,-1493.1C345.96,-1483.44 334.29,-1471.69 323.92,-1461.24"/>
<polygon fill="#3499cd" stroke="#cde8ef" points="326.17,-1458.54 316.64,-1453.92 321.2,-1463.48 326.17,-1458.54"/>
</g>
<!-- layer 1
neuron 1
linear cov -->
<g id="node20" class="node">
<title>layer 1
neuron 1
linear cov</title>
<polygon fill="#cde8ef" stroke="#cde8ef" points="170.23,-1453.87 114.23,-1453.87 114.23,-1412.87 170.23,-1412.87 170.23,-1453.87"/>
<text text-anchor="middle" x="142.23" y="-1441.87" font-family="Times New Roman,serif" font-size="10.00">layer 1</text>
<text text-anchor="middle" x="142.23" y="-1430.87" font-family="Times New Roman,serif" font-size="10.00">neuron 1</text>
<text text-anchor="middle" x="142.23" y="-1419.87" font-family="Times New Roman,serif" font-size="10.00">linear cov</text>
</g>
<!-- layer 0
neuron 2
linear cov&#45;&gt;layer 1
neuron 1
linear cov -->
<g id="edge11" class="edge">
<title>layer 0
neuron 2
linear cov&#45;&gt;layer 1
neuron 1
linear cov</title>
<path fill="none" stroke="#cde8ef" d="M193.82,-1493.1C185.42,-1483.54 175.22,-1471.92 166.11,-1461.55"/>
<polygon fill="#3499cd" stroke="#cde8ef" points="168.63,-1459.12 159.4,-1453.92 163.37,-1463.74 168.63,-1459.12"/>
</g>
<!-- layer 0
neuron 3
linear cov&#45;&gt;layer 1
neuron 1
linear cov -->
<g id="edge12" class="edge">
<title>layer 0
neuron 3
linear cov&#45;&gt;layer 1
neuron 1
linear cov</title>
<path fill="none" stroke="#cde8ef" d="M138.5,-1493.1C139.06,-1484.29 139.73,-1473.73 140.35,-1464.01"/>
<polygon fill="#3499cd" stroke="#cde8ef" points="143.85,-1464.12 140.99,-1453.92 136.86,-1463.67 143.85,-1464.12"/>
</g>
<!-- layer 1
neuron 0
linear cov&#45;&gt;layer 2
neuron 0
linear cov -->
<g id="edge13" class="edge">
<title>layer 1
neuron 0
linear cov&#45;&gt;layer 2
neuron 0
linear cov</title>
<path fill="none" stroke="#cde8ef" d="M290.94,-1412.5C287.81,-1402.62 283.97,-1390.49 280.51,-1379.57"/>
<polygon fill="#3499cd" stroke="#cde8ef" points="283.83,-1378.45 277.47,-1369.98 277.15,-1380.57 283.83,-1378.45"/>
</g>
<!-- layer 1
neuron 1
linear cov&#45;&gt;layer 2
neuron 1
linear cov -->
<g id="edge15" class="edge">
<title>layer 1
neuron 1
linear cov&#45;&gt;layer 2
neuron 1
linear cov</title>
<path fill="none" stroke="#cde8ef" d="M145.87,-1412.5C147.65,-1402.72 149.84,-1390.74 151.82,-1379.9"/>
<polygon fill="#3499cd" stroke="#cde8ef" points="155.28,-1380.44 153.64,-1369.98 148.4,-1379.19 155.28,-1380.44"/>
</g>
<!-- layer 3
neuron 0
linear cov -->
<g id="node23" class="node">
<title>layer 3
neuron 0
linear cov</title>
<polygon fill="#cde8ef" stroke="#cde8ef" points="260.23,-1289.25 204.23,-1289.25 204.23,-1248.25 260.23,-1248.25 260.23,-1289.25"/>
<text text-anchor="middle" x="232.23" y="-1277.25" font-family="Times New Roman,serif" font-size="10.00">layer 3</text>
<text text-anchor="middle" x="232.23" y="-1266.25" font-family="Times New Roman,serif" font-size="10.00">neuron 0</text>
<text text-anchor="middle" x="232.23" y="-1255.25" font-family="Times New Roman,serif" font-size="10.00">linear cov</text>
</g>
<!-- layer 2
neuron 0
linear cov&#45;&gt;layer 3
neuron 0
linear cov -->
<g id="edge17" class="edge">
<title>layer 2
neuron 0
linear cov&#45;&gt;layer 3
neuron 0
linear cov</title>
<path fill="none" stroke="#cde8ef" d="M261.39,-1328.47C256.88,-1319.38 251.44,-1308.43 246.49,-1298.46"/>
<polygon fill="#3499cd" stroke="#cde8ef" points="249.52,-1296.69 241.94,-1289.29 243.25,-1299.8 249.52,-1296.69"/>
</g>
<!-- layer 2
neuron 0
linear cov&#45;&gt;layer 3
neuron 1
linear cov -->
<g id="edge19" class="edge">
<title>layer 2
neuron 0
linear cov&#45;&gt;layer 3
neuron 1
linear cov</title>
<path fill="none" stroke="#cde8ef" d="M280.07,-1328.47C284.12,-1319.38 289,-1308.43 293.44,-1298.46"/>
<polygon fill="#3499cd" stroke="#cde8ef" points="296.65,-1299.85 297.53,-1289.29 290.26,-1297 296.65,-1299.85"/>
</g>
<!-- layer 2
neuron 1
linear cov&#45;&gt;layer 3
neuron 0
linear cov -->
<g id="edge18" class="edge">
<title>layer 2
neuron 1
linear cov&#45;&gt;layer 3
neuron 0
linear cov</title>
<path fill="none" stroke="#cde8ef" d="M176.16,-1328.47C185.38,-1318.82 196.6,-1307.07 206.58,-1296.62"/>
<polygon fill="#3499cd" stroke="#cde8ef" points="209.2,-1298.94 213.57,-1289.29 204.14,-1294.11 209.2,-1298.94"/>
</g>
<!-- layer 4
neuron 0
linear cov -->
<g id="node25" class="node">
<title>layer 4
neuron 0
linear cov</title>
<polygon fill="#cde8ef" stroke="#cde8ef" points="316.23,-1208.71 260.23,-1208.71 260.23,-1167.71 316.23,-1167.71 316.23,-1208.71"/>
<text text-anchor="middle" x="288.23" y="-1196.71" font-family="Times New Roman,serif" font-size="10.00">layer 4</text>
<text text-anchor="middle" x="288.23" y="-1185.71" font-family="Times New Roman,serif" font-size="10.00">neuron 0</text>
<text text-anchor="middle" x="288.23" y="-1174.71" font-family="Times New Roman,serif" font-size="10.00">linear cov</text>
</g>
<!-- layer 3
neuron 0
linear cov&#45;&gt;layer 4
neuron 0
linear cov -->
<g id="edge21" class="edge">
<title>layer 3
neuron 0
linear cov&#45;&gt;layer 4
neuron 0
linear cov</title>
<path fill="none" stroke="#cde8ef" d="M246.37,-1247.93C253.05,-1238.56 261.14,-1227.21 268.42,-1216.99"/>
<polygon fill="#3499cd" stroke="#cde8ef" points="271.35,-1218.92 274.3,-1208.75 265.65,-1214.86 271.35,-1218.92"/>
</g>
<!-- layer 3
neuron 1
linear cov&#45;&gt;layer 4
neuron 0
linear cov -->
<g id="edge22" class="edge">
<title>layer 3
neuron 1
linear cov&#45;&gt;layer 4
neuron 0
linear cov</title>
<path fill="none" stroke="#cde8ef" d="M301.69,-1247.93C299.65,-1239.03 297.2,-1228.34 294.95,-1218.53"/>
<polygon fill="#3499cd" stroke="#cde8ef" points="298.36,-1217.71 292.71,-1208.75 291.53,-1219.28 298.36,-1217.71"/>
</g>
<!-- layer 4
neuron 0
linear cov&#45;&gt;layer 5
neuron 0
linear cov -->
<g id="edge23" class="edge">
<title>layer 4
neuron 0
linear cov&#45;&gt;layer 5
neuron 0
linear cov</title>
<path fill="none" stroke="#cde8ef" d="M288.23,-1167.39C288.23,-1158.58 288.23,-1148.02 288.23,-1138.3"/>
<polygon fill="#3499cd" stroke="#cde8ef" points="291.73,-1138.21 288.23,-1128.21 284.73,-1138.21 291.73,-1138.21"/>
</g>
<!-- layer 5
neuron 0
linear cov&#45;&gt;layer 6
neuron 0
linear cov -->
<g id="edge25" class="edge">
<title>layer 5
neuron 0
linear cov&#45;&gt;layer 6
neuron 0
linear cov</title>
<path fill="none" stroke="#cde8ef" d="M295.55,-1086.85C298.87,-1077.85 302.87,-1067.03 306.52,-1057.14"/>
<polygon fill="#3499cd" stroke="#cde8ef" points="309.84,-1058.26 310.02,-1047.67 303.27,-1055.83 309.84,-1058.26"/>
</g>
<!-- layer 6
neuron 0
linear cov&#45;&gt;layer 7
neuron 0
linear cov -->
<g id="edge27" class="edge">
<title>layer 6
neuron 0
linear cov&#45;&gt;layer 7
neuron 0
linear cov</title>
<path fill="none" stroke="#cde8ef" d="M317.23,-1006.31C317.23,-997.5 317.23,-986.94 317.23,-977.22"/>
<polygon fill="#3499cd" stroke="#cde8ef" points="320.73,-977.12 317.23,-967.12 313.73,-977.12 320.73,-977.12"/>
</g>
<!-- layer 7
neuron 0
linear cov&#45;&gt;layer 8
neuron 0
linear cov -->
<g id="edge29" class="edge">
<title>layer 7
neuron 0
linear cov&#45;&gt;layer 8
neuron 0
linear cov</title>
<path fill="none" stroke="#cde8ef" d="M344.03,-926.07C356.56,-916.94 371.66,-905.95 385.1,-896.16"/>
<polygon fill="#3499cd" stroke="#cde8ef" points="387.19,-898.97 393.22,-890.26 383.07,-893.31 387.19,-898.97"/>
</g>
<!-- layer 8
neuron 0
linear cov&#45;&gt;layer 9
neuron 0
linear cov -->
<g id="edge31" class="edge">
<title>layer 8
neuron 0
linear cov&#45;&gt;layer 9
neuron 0
linear cov</title>
<path fill="none" stroke="#cde8ef" d="M408.37,-848.76C402.88,-839.58 396.24,-828.49 390.23,-818.44"/>
<polygon fill="#3499cd" stroke="#cde8ef" points="393.07,-816.37 384.93,-809.58 387.06,-819.96 393.07,-816.37"/>
</g>
<!-- layer 9
neuron 0
linear cov&#45;&gt;layer 10
neuron 0
linear cov -->
<g id="edge33" class="edge">
<title>layer 9
neuron 0
linear cov&#45;&gt;layer 10
neuron 0
linear cov</title>
<path fill="none" stroke="#cde8ef" d="M354.81,-768.22C345.84,-758.57 334.92,-746.82 325.21,-736.37"/>
<polygon fill="#3499cd" stroke="#cde8ef" points="327.77,-733.98 318.4,-729.04 322.64,-738.75 327.77,-733.98"/>
</g>
<!-- layer 10
neuron 0
linear cov&#45;&gt;layer 11
neuron 0
linear cov -->
<g id="edge35" class="edge">
<title>layer 10
neuron 0
linear cov&#45;&gt;layer 11
neuron 0
linear cov</title>
<path fill="none" stroke="#cde8ef" d="M290.25,-687.79C286.1,-679.61 281.21,-669.96 276.69,-661.03"/>
<polygon fill="#3499cd" stroke="#cde8ef" points="279.79,-659.41 272.15,-652.07 273.55,-662.58 279.79,-659.41"/>
</g>
<!-- layer 11
neuron 0
linear cov&#45;&gt;layer 12
neuron 0
linear cov -->
<g id="edge37" class="edge">
<title>layer 11
neuron 0
linear cov&#45;&gt;layer 12
neuron 0
linear cov</title>
<path fill="none" stroke="#cde8ef" d="M262.23,-610.79C262.23,-602.96 262.23,-593.77 262.23,-585.16"/>
<polygon fill="#3499cd" stroke="#cde8ef" points="265.73,-585.07 262.23,-575.07 258.73,-585.07 265.73,-585.07"/>
</g>
<!-- layer 11
neuron 0
linear cov&#45;&gt;layer 12
neuron 1
linear cov -->
<g id="edge39" class="edge">
<title>layer 11
neuron 0
linear cov&#45;&gt;layer 12
neuron 1
linear cov</title>
<path fill="none" stroke="#cde8ef" d="M234.02,-616.39C210.14,-604.45 175.71,-587.24 149.55,-574.16"/>
<polygon fill="#3499cd" stroke="#cde8ef" points="150.83,-570.89 140.32,-569.54 147.7,-577.15 150.83,-570.89"/>
</g>
<!-- layer 12
neuron 0
linear cov&#45;&gt;layer 13
neuron 0
linear cov -->
<g id="edge41" class="edge">
<title>layer 12
neuron 0
linear cov&#45;&gt;layer 13
neuron 0
linear cov</title>
<path fill="none" stroke="#cde8ef" d="M259.61,-533.79C258.56,-525.96 257.34,-516.77 256.19,-508.16"/>
<polygon fill="#3499cd" stroke="#cde8ef" points="259.63,-507.52 254.84,-498.07 252.7,-508.45 259.63,-507.52"/>
</g>
<!-- layer 12
neuron 1
linear cov&#45;&gt;layer 13
neuron 1
linear cov -->
<g id="edge43" class="edge">
<title>layer 12
neuron 1
linear cov&#45;&gt;layer 13
neuron 1
linear cov</title>
<path fill="none" stroke="#cde8ef" d="M126.95,-533.79C133.25,-525.35 140.72,-515.35 147.56,-506.18"/>
<polygon fill="#3499cd" stroke="#cde8ef" points="150.44,-508.18 153.62,-498.07 144.83,-503.99 150.44,-508.18"/>
</g>
<!-- layer 14
neuron 0
linear cov -->
<g id="node37" class="node">
<title>layer 14
neuron 0
linear cov</title>
<polygon fill="#cde8ef" stroke="#cde8ef" points="280.23,-421 224.23,-421 224.23,-380 280.23,-380 280.23,-421"/>
<text text-anchor="middle" x="252.23" y="-409" font-family="Times New Roman,serif" font-size="10.00">layer 14</text>
<text text-anchor="middle" x="252.23" y="-398" font-family="Times New Roman,serif" font-size="10.00">neuron 0</text>
<text text-anchor="middle" x="252.23" y="-387" font-family="Times New Roman,serif" font-size="10.00">linear cov</text>
</g>
<!-- layer 13
neuron 0
linear cov&#45;&gt;layer 14
neuron 0
linear cov -->
<g id="edge45" class="edge">
<title>layer 13
neuron 0
linear cov&#45;&gt;layer 14
neuron 0
linear cov</title>
<path fill="none" stroke="#cde8ef" d="M252.23,-456.79C252.23,-448.96 252.23,-439.77 252.23,-431.16"/>
<polygon fill="#3499cd" stroke="#cde8ef" points="255.73,-431.07 252.23,-421.07 248.73,-431.07 255.73,-431.07"/>
</g>
<!-- layer 13
neuron 1
linear cov&#45;&gt;layer 14
neuron 0
linear cov -->
<g id="edge46" class="edge">
<title>layer 13
neuron 1
linear cov&#45;&gt;layer 14
neuron 0
linear cov</title>
<path fill="none" stroke="#cde8ef" d="M190.3,-456.79C200.24,-447.92 212.11,-437.32 222.79,-427.79"/>
<polygon fill="#3499cd" stroke="#cde8ef" points="225.18,-430.34 230.31,-421.07 220.52,-425.12 225.18,-430.34"/>
</g>
<!-- layer 14
neuron 0
linear cov&#45;&gt;layer 15
neuron 0
linear cov -->
<g id="edge47" class="edge">
<title>layer 14
neuron 0
linear cov&#45;&gt;layer 15
neuron 0
linear cov</title>
<path fill="none" stroke="#cde8ef" d="M280.53,-382.1C297.47,-371.69 319.18,-358.34 337.44,-347.12"/>
<polygon fill="#3499cd" stroke="#cde8ef" points="339.41,-350.02 346.09,-341.8 335.74,-344.06 339.41,-350.02"/>
</g>
<!-- layer 15
neuron 0
linear cov&#45;&gt;layer 16
neuron 0
linear cov -->
<g id="edge49" class="edge">
<title>layer 15
neuron 0
linear cov&#45;&gt;layer 16
neuron 0
linear cov</title>
<path fill="none" stroke="#cde8ef" d="M374.23,-302.79C374.23,-294.96 374.23,-285.77 374.23,-277.16"/>
<polygon fill="#3499cd" stroke="#cde8ef" points="377.73,-277.07 374.23,-267.07 370.73,-277.07 377.73,-277.07"/>
</g>
<!-- layer 16
neuron 0
linear cov&#45;&gt;layer 17
neuron 0
linear cov -->
<g id="edge51" class="edge">
<title>layer 16
neuron 0
linear cov&#45;&gt;layer 17
neuron 0
linear cov</title>
<path fill="none" stroke="#cde8ef" d="M346.01,-238.44C291.96,-224.93 173.79,-195.39 112.62,-180.1"/>
<polygon fill="#3499cd" stroke="#cde8ef" points="113.15,-176.62 102.6,-177.59 111.45,-183.41 113.15,-176.62"/>
</g>
<!-- layer 17
neuron 0
linear cov&#45;&gt;layer 18
neuron 0
linear cov -->
<g id="edge53" class="edge">
<title>layer 17
neuron 0
linear cov&#45;&gt;layer 18
neuron 0
linear cov</title>
<path fill="none" stroke="#cde8ef" d="M66.88,-148.79C63.89,-140.79 60.37,-131.37 57.1,-122.59"/>
<polygon fill="#3499cd" stroke="#cde8ef" points="60.32,-121.22 53.54,-113.07 53.76,-123.67 60.32,-121.22"/>
</g>
<!-- layer 18
neuron 0
linear cov&#45;&gt;OUTPUT -->
<g id="edge55" class="edge">
<title>layer 18
neuron 0
linear cov&#45;&gt;OUTPUT</title>
<path fill="none" stroke="#cde8ef" d="M46.23,-71.69C46.23,-63.91 46.23,-54.84 46.23,-46.45"/>
<polygon fill="#3499cd" stroke="#cde8ef" points="49.73,-46.32 46.23,-36.32 42.73,-46.32 49.73,-46.32"/>
</g>
</g>
</svg>
