<?xml version="1.0" encoding="UTF-8" standalone="no"?>
<!DOCTYPE svg PUBLIC "-//W3C//DTD SVG 1.1//EN"
 "http://www.w3.org/Graphics/SVG/1.1/DTD/svg11.dtd">
<!-- Generated by graphviz version 2.47.0 (20210316.0004)
 -->
<!-- Pages: 1 -->
<svg width="582pt" height="407pt"
 viewBox="0.00 0.00 581.81 407.08" xmlns="http://www.w3.org/2000/svg" xmlns:xlink="http://www.w3.org/1999/xlink">
<g id="graph0" class="graph" transform="scale(1 1) rotate(0) translate(4 403.08)">
<polygon fill="white" stroke="transparent" points="-4,4 -4,-403.08 577.81,-403.08 577.81,4 -4,4"/>
<text text-anchor="middle" x="286.91" y="-380.68" font-family="Times New Roman,serif" font-size="18.00">Self&#45;organizing deep learning polynomial neural network</text>
<text text-anchor="middle" x="286.91" y="-360.68" font-family="Times New Roman,serif" font-size="18.00"> </text>
<!-- OUTPUT -->
<g id="node1" class="node">
<title>OUTPUT</title>
<ellipse fill="#ff9c34" stroke="#f89939" cx="214.76" cy="-18" rx="38.33" ry="18"/>
<text text-anchor="middle" x="214.76" y="-14.9" font-family="Times New Roman,serif" font-size="12.00" fill="white">OUTPUT</text>
</g>
<!-- F0
sepal length (cm) -->
<g id="node2" class="node">
<title>F0
sepal length (cm)</title>
<ellipse fill="#ff9c34" stroke="#f89939" cx="65.76" cy="-327.04" rx="65.52" ry="24.08"/>
<text text-anchor="middle" x="65.76" y="-330.44" font-family="Times New Roman,serif" font-size="12.00" fill="white">F0</text>
<text text-anchor="middle" x="65.76" y="-317.44" font-family="Times New Roman,serif" font-size="12.00" fill="white">sepal length (cm)</text>
</g>
<!-- layer 0
neuron 1
linear cov -->
<g id="node7" class="node">
<title>layer 0
neuron 1
linear cov</title>
<polygon fill="#cde8ef" stroke="#cde8ef" points="168.76,-267 112.76,-267 112.76,-226 168.76,-226 168.76,-267"/>
<text text-anchor="middle" x="140.76" y="-255" font-family="Times New Roman,serif" font-size="10.00">layer 0</text>
<text text-anchor="middle" x="140.76" y="-244" font-family="Times New Roman,serif" font-size="10.00">neuron 1</text>
<text text-anchor="middle" x="140.76" y="-233" font-family="Times New Roman,serif" font-size="10.00">linear cov</text>
</g>
<!-- F0
sepal length (cm)&#45;&gt;layer 0
neuron 1
linear cov -->
<g id="edge3" class="edge">
<title>F0
sepal length (cm)&#45;&gt;layer 0
neuron 1
linear cov</title>
<path fill="none" stroke="#cde8ef" d="M86.65,-304.16C95.41,-294.99 105.68,-284.24 114.9,-274.58"/>
<polygon fill="#3499cd" stroke="#cde8ef" points="117.65,-276.77 122.03,-267.12 112.59,-271.93 117.65,-276.77"/>
</g>
<!-- layer 0
neuron 2
linear cov -->
<g id="node8" class="node">
<title>layer 0
neuron 2
linear cov</title>
<polygon fill="#cde8ef" stroke="#cde8ef" points="242.76,-267 186.76,-267 186.76,-226 242.76,-226 242.76,-267"/>
<text text-anchor="middle" x="214.76" y="-255" font-family="Times New Roman,serif" font-size="10.00">layer 0</text>
<text text-anchor="middle" x="214.76" y="-244" font-family="Times New Roman,serif" font-size="10.00">neuron 2</text>
<text text-anchor="middle" x="214.76" y="-233" font-family="Times New Roman,serif" font-size="10.00">linear cov</text>
</g>
<!-- F0
sepal length (cm)&#45;&gt;layer 0
neuron 2
linear cov -->
<g id="edge5" class="edge">
<title>F0
sepal length (cm)&#45;&gt;layer 0
neuron 2
linear cov</title>
<path fill="none" stroke="#cde8ef" d="M102.21,-306.83C125.08,-294.77 154.48,-279.27 177.5,-267.14"/>
<polygon fill="#3499cd" stroke="#cde8ef" points="179.41,-270.09 186.62,-262.33 176.14,-263.9 179.41,-270.09"/>
</g>
<!-- F1
sepal width (cm) -->
<g id="node3" class="node">
<title>F1
sepal width (cm)</title>
<ellipse fill="#ff9c34" stroke="#f89939" cx="508.76" cy="-327.04" rx="65.11" ry="24.08"/>
<text text-anchor="middle" x="508.76" y="-330.44" font-family="Times New Roman,serif" font-size="12.00" fill="white">F1</text>
<text text-anchor="middle" x="508.76" y="-317.44" font-family="Times New Roman,serif" font-size="12.00" fill="white">sepal width (cm)</text>
</g>
<!-- layer 0
neuron 0
linear cov -->
<g id="node6" class="node">
<title>layer 0
neuron 0
linear cov</title>
<polygon fill="#cde8ef" stroke="#cde8ef" points="316.76,-267 260.76,-267 260.76,-226 316.76,-226 316.76,-267"/>
<text text-anchor="middle" x="288.76" y="-255" font-family="Times New Roman,serif" font-size="10.00">layer 0</text>
<text text-anchor="middle" x="288.76" y="-244" font-family="Times New Roman,serif" font-size="10.00">neuron 0</text>
<text text-anchor="middle" x="288.76" y="-233" font-family="Times New Roman,serif" font-size="10.00">linear cov</text>
</g>
<!-- F1
sepal width (cm)&#45;&gt;layer 0
neuron 0
linear cov -->
<g id="edge1" class="edge">
<title>F1
sepal width (cm)&#45;&gt;layer 0
neuron 0
linear cov</title>
<path fill="none" stroke="#cde8ef" d="M463.18,-309.77C422.74,-295.33 364.37,-274.49 326.5,-260.97"/>
<polygon fill="#3499cd" stroke="#cde8ef" points="327.46,-257.6 316.87,-257.53 325.11,-264.19 327.46,-257.6"/>
</g>
<!-- F2
petal length (cm) -->
<g id="node4" class="node">
<title>F2
petal length (cm)</title>
<ellipse fill="#ff9c34" stroke="#f89939" cx="214.76" cy="-327.04" rx="65.11" ry="24.08"/>
<text text-anchor="middle" x="214.76" y="-330.44" font-family="Times New Roman,serif" font-size="12.00" fill="white">F2</text>
<text text-anchor="middle" x="214.76" y="-317.44" font-family="Times New Roman,serif" font-size="12.00" fill="white">petal length (cm)</text>
</g>
<!-- F2
petal length (cm)&#45;&gt;layer 0
neuron 0
linear cov -->
<g id="edge2" class="edge">
<title>F2
petal length (cm)&#45;&gt;layer 0
neuron 0
linear cov</title>
<path fill="none" stroke="#cde8ef" d="M235.37,-304.16C244.01,-294.99 254.14,-284.24 263.25,-274.58"/>
<polygon fill="#3499cd" stroke="#cde8ef" points="265.97,-276.8 270.28,-267.12 260.87,-272 265.97,-276.8"/>
</g>
<!-- F2
petal length (cm)&#45;&gt;layer 0
neuron 1
linear cov -->
<g id="edge4" class="edge">
<title>F2
petal length (cm)&#45;&gt;layer 0
neuron 1
linear cov</title>
<path fill="none" stroke="#cde8ef" d="M194.15,-304.16C185.51,-294.99 175.38,-284.24 166.27,-274.58"/>
<polygon fill="#3499cd" stroke="#cde8ef" points="168.65,-272 159.24,-267.12 163.55,-276.8 168.65,-272"/>
</g>
<!-- F3
petal width (cm) -->
<g id="node5" class="node">
<title>F3
petal width (cm)</title>
<ellipse fill="#ff9c34" stroke="#f89939" cx="361.76" cy="-327.04" rx="63.78" ry="24.08"/>
<text text-anchor="middle" x="361.76" y="-330.44" font-family="Times New Roman,serif" font-size="12.00" fill="white">F3</text>
<text text-anchor="middle" x="361.76" y="-317.44" font-family="Times New Roman,serif" font-size="12.00" fill="white">petal width (cm)</text>
</g>
<!-- F3
petal width (cm)&#45;&gt;layer 0
neuron 2
linear cov -->
<g id="edge6" class="edge">
<title>F3
petal width (cm)&#45;&gt;layer 0
neuron 2
linear cov</title>
<path fill="none" stroke="#cde8ef" d="M326.18,-307.03C303.77,-295.06 274.9,-279.63 252.15,-267.48"/>
<polygon fill="#3499cd" stroke="#cde8ef" points="253.61,-264.29 243.14,-262.66 250.31,-270.46 253.61,-264.29"/>
</g>
<!-- layer 1
neuron 1
linear cov -->
<g id="node10" class="node">
<title>layer 1
neuron 1
linear cov</title>
<polygon fill="#cde8ef" stroke="#cde8ef" points="279.76,-190 223.76,-190 223.76,-149 279.76,-149 279.76,-190"/>
<text text-anchor="middle" x="251.76" y="-178" font-family="Times New Roman,serif" font-size="10.00">layer 1</text>
<text text-anchor="middle" x="251.76" y="-167" font-family="Times New Roman,serif" font-size="10.00">neuron 1</text>
<text text-anchor="middle" x="251.76" y="-156" font-family="Times New Roman,serif" font-size="10.00">linear cov</text>
</g>
<!-- layer 0
neuron 0
linear cov&#45;&gt;layer 1
neuron 1
linear cov -->
<g id="edge9" class="edge">
<title>layer 0
neuron 0
linear cov&#45;&gt;layer 1
neuron 1
linear cov</title>
<path fill="none" stroke="#cde8ef" d="M279.04,-225.79C275.05,-217.7 270.34,-208.16 265.97,-199.31"/>
<polygon fill="#3499cd" stroke="#cde8ef" points="268.98,-197.49 261.42,-190.07 262.7,-200.59 268.98,-197.49"/>
</g>
<!-- layer 1
neuron 0
linear cov -->
<g id="node9" class="node">
<title>layer 1
neuron 0
linear cov</title>
<polygon fill="#cde8ef" stroke="#cde8ef" points="205.76,-190 149.76,-190 149.76,-149 205.76,-149 205.76,-190"/>
<text text-anchor="middle" x="177.76" y="-178" font-family="Times New Roman,serif" font-size="10.00">layer 1</text>
<text text-anchor="middle" x="177.76" y="-167" font-family="Times New Roman,serif" font-size="10.00">neuron 0</text>
<text text-anchor="middle" x="177.76" y="-156" font-family="Times New Roman,serif" font-size="10.00">linear cov</text>
</g>
<!-- layer 0
neuron 1
linear cov&#45;&gt;layer 1
neuron 0
linear cov -->
<g id="edge7" class="edge">
<title>layer 0
neuron 1
linear cov&#45;&gt;layer 1
neuron 0
linear cov</title>
<path fill="none" stroke="#cde8ef" d="M150.48,-225.79C154.48,-217.7 159.18,-208.16 163.55,-199.31"/>
<polygon fill="#3499cd" stroke="#cde8ef" points="166.82,-200.59 168.1,-190.07 160.54,-197.49 166.82,-200.59"/>
</g>
<!-- layer 0
neuron 2
linear cov&#45;&gt;layer 1
neuron 0
linear cov -->
<g id="edge8" class="edge">
<title>layer 0
neuron 2
linear cov&#45;&gt;layer 1
neuron 0
linear cov</title>
<path fill="none" stroke="#cde8ef" d="M205.04,-225.79C201.05,-217.7 196.34,-208.16 191.97,-199.31"/>
<polygon fill="#3499cd" stroke="#cde8ef" points="194.98,-197.49 187.42,-190.07 188.7,-200.59 194.98,-197.49"/>
</g>
<!-- layer 0
neuron 2
linear cov&#45;&gt;layer 1
neuron 1
linear cov -->
<g id="edge10" class="edge">
<title>layer 0
neuron 2
linear cov&#45;&gt;layer 1
neuron 1
linear cov</title>
<path fill="none" stroke="#cde8ef" d="M224.48,-225.79C228.48,-217.7 233.18,-208.16 237.55,-199.31"/>
<polygon fill="#3499cd" stroke="#cde8ef" points="240.82,-200.59 242.1,-190.07 234.54,-197.49 240.82,-200.59"/>
</g>
<!-- layer 2
neuron 0
linear cov -->
<g id="node11" class="node">
<title>layer 2
neuron 0
linear cov</title>
<polygon fill="#cde8ef" stroke="#cde8ef" points="242.76,-113 186.76,-113 186.76,-72 242.76,-72 242.76,-113"/>
<text text-anchor="middle" x="214.76" y="-101" font-family="Times New Roman,serif" font-size="10.00">layer 2</text>
<text text-anchor="middle" x="214.76" y="-90" font-family="Times New Roman,serif" font-size="10.00">neuron 0</text>
<text text-anchor="middle" x="214.76" y="-79" font-family="Times New Roman,serif" font-size="10.00">linear cov</text>
</g>
<!-- layer 1
neuron 0
linear cov&#45;&gt;layer 2
neuron 0
linear cov -->
<g id="edge11" class="edge">
<title>layer 1
neuron 0
linear cov&#45;&gt;layer 2
neuron 0
linear cov</title>
<path fill="none" stroke="#cde8ef" d="M187.48,-148.79C191.48,-140.7 196.18,-131.16 200.55,-122.31"/>
<polygon fill="#3499cd" stroke="#cde8ef" points="203.82,-123.59 205.1,-113.07 197.54,-120.49 203.82,-123.59"/>
</g>
<!-- layer 1
neuron 1
linear cov&#45;&gt;layer 2
neuron 0
linear cov -->
<g id="edge12" class="edge">
<title>layer 1
neuron 1
linear cov&#45;&gt;layer 2
neuron 0
linear cov</title>
<path fill="none" stroke="#cde8ef" d="M242.04,-148.79C238.05,-140.7 233.34,-131.16 228.97,-122.31"/>
<polygon fill="#3499cd" stroke="#cde8ef" points="231.98,-120.49 224.42,-113.07 225.7,-123.59 231.98,-120.49"/>
</g>
<!-- layer 2
neuron 0
linear cov&#45;&gt;OUTPUT -->
<g id="edge13" class="edge">
<title>layer 2
neuron 0
linear cov&#45;&gt;OUTPUT</title>
<path fill="none" stroke="#cde8ef" d="M214.76,-71.69C214.76,-63.91 214.76,-54.84 214.76,-46.45"/>
<polygon fill="#3499cd" stroke="#cde8ef" points="218.26,-46.32 214.76,-36.32 211.26,-46.32 218.26,-46.32"/>
</g>
</g>
</svg>
